<svg viewBox="0 0 100 100" fill="none" xmlns="http://www.w3.org/2000/svg"><circle cx="50" cy="52" r="22" fill="#1e9e9e"/><ellipse cx="50" cy="48" rx="16" ry="15" fill="#2bb5b5"/><circle cx="42" cy="44" r="2.5" fill="#111827"/><circle cx="58" cy="44" r="2.5" fill="#111827"/><ellipse cx="50" cy="51" rx="4" ry="2.5" fill="#115e5e"/><path d="M47 53 Q50 57 53 53" stroke="#115e5e" stroke-width="1.5" fill="none" stroke-linecap="round"/><circle cx="50" cy="50" r="34" stroke="#5ccfcf" stroke-width="3" fill="none"/><path d="M26 28 Q20 18 28 14 Q34 20 30 28" fill="#5ccfcf"/><path d="M74 28 Q80 18 72 14 Q66 20 70 28" fill="#5ccfcf"/><path d="M18 42 Q8 38 10 28 Q18 32 20 40" fill="#5ccfcf"/><path d="M82 42 Q92 38 90 28 Q82 32 80 40" fill="#5ccfcf"/><path d="M20 58 Q8 58 8 48 Q16 50 20 56" fill="#5ccfcf"/><path d="M80 58 Q92 58 92 48 Q84 50 80 56" fill="#5ccfcf"/><path d="M24 72 Q14 74 12 64 Q20 64 24 70" fill="#5ccfcf"/><path d="M76 72 Q86 74 88 64 Q80 64 76 70" fill="#5ccfcf"/><path d="M34 80 Q28 88 34 90 Q38 84 36 78" fill="#5ccfcf"/><path d="M66 80 Q72 88 66 90 Q62 84 64 78" fill="#5ccfcf"/></svg>